<svg viewBox="0 0 1376 400" xmlns="http://www.w3.org/2000/svg"><g><g><g><g><g><line x1="50" y1="378" x2="45" y2="378" style="visibility: inherit;" fill="rgb(0, 0, 0)" stroke="rgb(204, 204, 204)" stroke-width="1px"></line><line x1="50" y1="346.5000000000007" x2="45" y2="346.5000000000007" style="visibility: inherit;" fill="rgb(0, 0, 0)" stroke="rgb(204, 204, 204)" stroke-width="1px"></line><line x1="50" y1="315.00000000000017" x2="45" y2="315.00000000000017" style="visibility: inherit;" fill="rgb(0, 0, 0)" stroke="rgb(204, 204, 204)" stroke-width="1px"></line><line x1="50" y1="283.50000000000085" x2="45" y2="283.50000000000085" style="visibility: inherit;" fill="rgb(0, 0, 0)" stroke="rgb(204, 204, 204)" stroke-width="1px"></line><line x1="50" y1="252.00000000000037" x2="45" y2="252.00000000000037" style="visibility: inherit;" fill="rgb(0, 0, 0)" stroke="rgb(204, 204, 204)" stroke-width="1px"></line><line x1="50" y1="220.49999999999991" x2="45" y2="220.49999999999991" style="visibility: inherit;" fill="rgb(0, 0, 0)" stroke="rgb(204, 204, 204)" stroke-width="1px"></line><line x1="50" y1="189.00000000000057" x2="45" y2="189.00000000000057" style="visibility: inherit;" fill="rgb(0, 0, 0)" stroke="rgb(204, 204, 204)" stroke-width="1px"></line><line x1="50" y1="157.5000000000001" x2="45" y2="157.5000000000001" style="visibility: inherit;" fill="rgb(0, 0, 0)" stroke="rgb(204, 204, 204)" stroke-width="1px"></line><line x1="50" y1="126.00000000000074" x2="45" y2="126.00000000000074" style="visibility: inherit;" fill="rgb(0, 0, 0)" stroke="rgb(204, 204, 204)" stroke-width="1px"></line><line x1="50" y1="94.50000000000028" x2="45" y2="94.50000000000028" style="visibility: inherit;" fill="rgb(0, 0, 0)" stroke="rgb(204, 204, 204)" stroke-width="1px"></line><line x1="50" y1="62.99999999999983" x2="45" y2="62.99999999999983" style="visibility: inherit;" fill="rgb(0, 0, 0)" stroke="rgb(204, 204, 204)" stroke-width="1px"></line><line x1="50" y1="31.500000000000455" x2="45" y2="31.500000000000455" style="visibility: inherit;" fill="rgb(0, 0, 0)" stroke="rgb(204, 204, 204)" stroke-width="1px"></line><line x1="50" y1="0" x2="45" y2="0" style="visibility: inherit;" fill="rgb(0, 0, 0)" stroke="rgb(204, 204, 204)" stroke-width="1px"></line></g><g transform="translate(40, 0)"><text x="0" y="378" dx="0em" dy="0.3em" style="text-anchor: end; visibility: hidden; font-family: &quot;Helvetica Neue&quot;, sans-serif; font-size: 12px; font-weight: 200;" fill="rgb(50, 49, 63)" stroke="none" stroke-width="1px">25.1</text><text x="0" y="346.5000000000007" dx="0em" dy="0.3em" style="text-anchor: end; visibility: inherit; font-family: &quot;Helvetica Neue&quot;, sans-serif; font-size: 12px; font-weight: 200;" fill="rgb(50, 49, 63)" stroke="none" stroke-width="1px">25.2</text><text x="0" y="315.00000000000017" dx="0em" dy="0.3em" style="text-anchor: end; visibility: inherit; font-family: &quot;Helvetica Neue&quot;, sans-serif; font-size: 12px; font-weight: 200;" fill="rgb(50, 49, 63)" stroke="none" stroke-width="1px">25.3</text><text x="0" y="283.50000000000085" dx="0em" dy="0.3em" style="text-anchor: end; visibility: inherit; font-family: &quot;Helvetica Neue&quot;, sans-serif; font-size: 12px; font-weight: 200;" fill="rgb(50, 49, 63)" stroke="none" stroke-width="1px">25.4</text><text x="0" y="252.00000000000037" dx="0em" dy="0.3em" style="text-anchor: end; visibility: inherit; font-family: &quot;Helvetica Neue&quot;, sans-serif; font-size: 12px; font-weight: 200;" fill="rgb(50, 49, 63)" stroke="none" stroke-width="1px">25.5</text><text x="0" y="220.49999999999991" dx="0em" dy="0.3em" style="text-anchor: end; visibility: inherit; font-family: &quot;Helvetica Neue&quot;, sans-serif; font-size: 12px; font-weight: 200;" fill="rgb(50, 49, 63)" stroke="none" stroke-width="1px">25.6</text><text x="0" y="189.00000000000057" dx="0em" dy="0.3em" style="text-anchor: end; visibility: inherit; font-family: &quot;Helvetica Neue&quot;, sans-serif; font-size: 12px; font-weight: 200;" fill="rgb(50, 49, 63)" stroke="none" stroke-width="1px">25.7</text><text x="0" y="157.5000000000001" dx="0em" dy="0.3em" style="text-anchor: end; visibility: inherit; font-family: &quot;Helvetica Neue&quot;, sans-serif; font-size: 12px; font-weight: 200;" fill="rgb(50, 49, 63)" stroke="none" stroke-width="1px">25.8</text><text x="0" y="126.00000000000074" dx="0em" dy="0.3em" style="text-anchor: end; visibility: inherit; font-family: &quot;Helvetica Neue&quot;, sans-serif; font-size: 12px; font-weight: 200;" fill="rgb(50, 49, 63)" stroke="none" stroke-width="1px">25.9</text><text x="0" y="94.50000000000028" dx="0em" dy="0.3em" style="text-anchor: end; visibility: inherit; font-family: &quot;Helvetica Neue&quot;, sans-serif; font-size: 12px; font-weight: 200;" fill="rgb(50, 49, 63)" stroke="none" stroke-width="1px">26</text><text x="0" y="62.99999999999983" dx="0em" dy="0.3em" style="text-anchor: end; visibility: inherit; font-family: &quot;Helvetica Neue&quot;, sans-serif; font-size: 12px; font-weight: 200;" fill="rgb(50, 49, 63)" stroke="none" stroke-width="1px">26.1</text><text x="0" y="31.500000000000455" dx="0em" dy="0.3em" style="text-anchor: end; visibility: inherit; font-family: &quot;Helvetica Neue&quot;, sans-serif; font-size: 12px; font-weight: 200;" fill="rgb(50, 49, 63)" stroke="none" stroke-width="1px">26.2</text><text x="0" y="0" dx="0em" dy="0.3em" style="text-anchor: end; visibility: hidden; font-family: &quot;Helvetica Neue&quot;, sans-serif; font-size: 12px; font-weight: 200;" fill="rgb(50, 49, 63)" stroke="none" stroke-width="1px">26.3</text></g><line x1="50" y1="0" x2="50" y2="378" fill="rgb(0, 0, 0)" stroke="rgb(204, 204, 204)" stroke-width="1px"></line></g></g><g transform="translate(50, 0)" clip-path="url(#clip_0)"><clipPath id="clip_0"><rect width="1326" height="378"></rect></clipPath><g><g><g><line x1="0" y1="0" x2="0" y2="378" fill="rgb(0, 0, 0)" stroke="rgb(60, 60, 60)" stroke-width="1px" opacity="0.25"></line><line x1="110.5" y1="0" x2="110.5" y2="378" fill="rgb(0, 0, 0)" stroke="rgb(60, 60, 60)" stroke-width="1px" opacity="0.25"></line><line x1="221" y1="0" x2="221" y2="378" fill="rgb(0, 0, 0)" stroke="rgb(60, 60, 60)" stroke-width="1px" opacity="0.25"></line><line x1="331.5" y1="0" x2="331.5" y2="378" fill="rgb(0, 0, 0)" stroke="rgb(60, 60, 60)" stroke-width="1px" opacity="0.25"></line><line x1="442" y1="0" x2="442" y2="378" fill="rgb(0, 0, 0)" stroke="rgb(60, 60, 60)" stroke-width="1px" opacity="0.25"></line><line x1="552.5" y1="0" x2="552.5" y2="378" fill="rgb(0, 0, 0)" stroke="rgb(60, 60, 60)" stroke-width="1px" opacity="0.25"></line><line x1="663" y1="0" x2="663" y2="378" fill="rgb(0, 0, 0)" stroke="rgb(60, 60, 60)" stroke-width="1px" opacity="0.25"></line><line x1="773.5" y1="0" x2="773.5" y2="378" fill="rgb(0, 0, 0)" stroke="rgb(60, 60, 60)" stroke-width="1px" opacity="0.25"></line><line x1="884" y1="0" x2="884" y2="378" fill="rgb(0, 0, 0)" stroke="rgb(60, 60, 60)" stroke-width="1px" opacity="0.25"></line><line x1="994.5" y1="0" x2="994.5" y2="378" fill="rgb(0, 0, 0)" stroke="rgb(60, 60, 60)" stroke-width="1px" opacity="0.25"></line><line x1="1105" y1="0" x2="1105" y2="378" fill="rgb(0, 0, 0)" stroke="rgb(60, 60, 60)" stroke-width="1px" opacity="0.25"></line><line x1="1215.5" y1="0" x2="1215.5" y2="378" fill="rgb(0, 0, 0)" stroke="rgb(60, 60, 60)" stroke-width="1px" opacity="0.25"></line><line x1="1326" y1="0" x2="1326" y2="378" fill="rgb(0, 0, 0)" stroke="rgb(60, 60, 60)" stroke-width="1px" opacity="0.25"></line></g><g><line x1="0" y1="378" x2="1326" y2="378" fill="rgb(0, 0, 0)" stroke="rgb(60, 60, 60)" stroke-width="1px" opacity="0.25"></line><line x1="0" y1="346.5000000000007" x2="1326" y2="346.5000000000007" fill="rgb(0, 0, 0)" stroke="rgb(60, 60, 60)" stroke-width="1px" opacity="0.25"></line><line x1="0" y1="315.00000000000017" x2="1326" y2="315.00000000000017" fill="rgb(0, 0, 0)" stroke="rgb(60, 60, 60)" stroke-width="1px" opacity="0.25"></line><line x1="0" y1="283.50000000000085" x2="1326" y2="283.50000000000085" fill="rgb(0, 0, 0)" stroke="rgb(60, 60, 60)" stroke-width="1px" opacity="0.25"></line><line x1="0" y1="252.00000000000037" x2="1326" y2="252.00000000000037" fill="rgb(0, 0, 0)" stroke="rgb(60, 60, 60)" stroke-width="1px" opacity="0.25"></line><line x1="0" y1="220.49999999999991" x2="1326" y2="220.49999999999991" fill="rgb(0, 0, 0)" stroke="rgb(60, 60, 60)" stroke-width="1px" opacity="0.25"></line><line x1="0" y1="189.00000000000057" x2="1326" y2="189.00000000000057" fill="rgb(0, 0, 0)" stroke="rgb(60, 60, 60)" stroke-width="1px" opacity="0.25"></line><line x1="0" y1="157.5000000000001" x2="1326" y2="157.5000000000001" fill="rgb(0, 0, 0)" stroke="rgb(60, 60, 60)" stroke-width="1px" opacity="0.25"></line><line x1="0" y1="126.00000000000074" x2="1326" y2="126.00000000000074" fill="rgb(0, 0, 0)" stroke="rgb(60, 60, 60)" stroke-width="1px" opacity="0.25"></line><line x1="0" y1="94.50000000000028" x2="1326" y2="94.50000000000028" fill="rgb(0, 0, 0)" stroke="rgb(60, 60, 60)" stroke-width="1px" opacity="0.25"></line><line x1="0" y1="62.99999999999983" x2="1326" y2="62.99999999999983" fill="rgb(0, 0, 0)" stroke="rgb(60, 60, 60)" stroke-width="1px" opacity="0.25"></line><line x1="0" y1="31.500000000000455" x2="1326" y2="31.500000000000455" fill="rgb(0, 0, 0)" stroke="rgb(60, 60, 60)" stroke-width="1px" opacity="0.25"></line><line x1="0" y1="0" x2="1326" y2="0" fill="rgb(0, 0, 0)" stroke="rgb(60, 60, 60)" stroke-width="1px" opacity="0.25"></line></g></g></g><g><g><line x1="0" y1="8284.500000000004" x2="1326" y2="8284.500000000004" fill="rgb(0, 0, 0)" stroke="rgb(153, 153, 153)" stroke-width="1.5px"></line></g></g><g><g><line x1="110.5" y1="0" x2="110.5" y2="378" fill="rgb(0, 0, 0)" stroke="rgb(153, 153, 153)" stroke-width="1.5px"></line></g></g><g><g><g><g><g><path stroke="rgb(0, 119, 187)" stroke-width="2px" d="M111.605,167.68465232849155L112.71000000000001,173.4586660823836L113.815,139.821005132024L114.92,172.97205500422336L116.02499999999999,173.41485264237588L117.13,142.9988287805345L118.23500000000001,154.91143516847006L119.33999999999999,163.17166331075137L120.44500000000001,180.4191532428383L121.55,183.33384653555362L122.655,178.1221449561875L123.76,185.8214734932732L124.865,180.59209897537224L125.97,188.82064830309653L127.075,183.65936911143697L128.18,185.11552127849652L129.285,185.82828157818932L130.39,184.9667936513223L131.495,192.00366261297154L132.6,191.3368687032831L133.70499999999998,195.7438378636147L134.81,200.14764790266366L135.915,197.53303378544848L137.02,197.419286846481L138.125,198.04262887325092L139.23,197.41117561117628L140.335,196.67086210413942L141.44,195.6763606075376L142.545,198.15230982793733L143.65,196.16993069714525L144.755,198.37570979096554L145.86,197.723554790657L146.965,202.36732869234913L148.07,197.65599282731327L149.175,196.97041115922158L150.28,195.47851816796117L151.385,194.85358951230182L152.49,197.82244183737853L153.595,196.28581128216027L154.7,200.04822255816939L155.80499999999998,199.24296951734388L156.91,198.75655677738695L158.01500000000001,195.76172575098605L159.12,197.53720375111786L160.225,197.02939976539776L161.33,192.45725715321913L162.435,193.19046799801302L163.54,193.77849306311535L164.64499999999998,196.37036969685417L165.75,196.63812402884952L166.855,195.22398405649966L167.96,196.69912777097724L169.065,195.18004718159509L170.17,197.07887400755266L171.275,195.48872844109567L172.38,195.69602698906473L173.48499999999999,195.72200376045467L174.58999999999997,195.27378547969218L175.69500000000002,197.4055849939591L176.8,197.08614330747403L177.90499999999997,198.536641772633L179.01000000000002,200.0842105382351L180.115,199.11155430892921L181.22,199.0425937377222L182.32500000000002,199.26136769333027L183.43,198.988552034912L184.535,198.65990599117742L185.64000000000001,198.21195382049868L186.745,199.23541734041478L187.85,198.35278621794512L188.95499999999998,199.30333774140018L190.06,198.99433746360347L191.165,201.11758552963366L192.26999999999998,198.92707682250736L193.375,198.58314935695668L194.48,197.84028846178435L195.58499999999998,197.50213394369916L196.69000000000003,198.94216541881815L197.79500000000002,198.15366184461706L198.9,200.0482225581761L200.00500000000002,199.63247179226786L201.11,199.37340559657827L202.215,197.7830994179964L203.32,198.7066293340625L204.425,198.4180737160618L205.53,195.9067861679425L206.635,196.26942438431936L207.74,196.56004106057517L208.845,197.9828867235614L209.95,198.11588395544925L211.055,197.29053593106278L212.16,198.11746001126133L213.265,197.21850168798417L214.36999999999998,198.3083794052915L215.475,197.35583665497833L216.57999999999998,197.45878578113107L217.68499999999997,197.4552956884845L218.79000000000002,197.16617389074855L219.895,198.4419094974188L221,198.2355379580649L222.10500000000002,199.1170874622094L223.21,200.07053362888752L224.315,199.46389132731753L225.42000000000002,199.41704307639299L226.525,199.55141777365014L227.63,199.3752853324609L228.73499999999999,199.16158992459324L229.84,198.86903162855631L230.945,199.52345091481305L232.04999999999998,198.94783244992732L233.155,199.56228230159704L234.26,199.35724383572943L235.36499999999998,200.75279401973526L236.47000000000003,199.3059849099455L237.575,199.07373715022146L238.67999999999998,198.5728800566648L239.78500000000003,198.33927760335004L240.89000000000001,199.3025667477191L241.995,198.76549195407384L243.1,200.04822255817385L244.205,199.76438059034686L245.31,199.58564722958812L246.415,198.48936725920464L247.52,199.12135428895493L248.625,198.91771288738727L249.73,197.16541559510884L250.835,197.408219431736L251.94,197.60250928180122L253.045,198.59502957256333L254.15,198.68391195281293L255.255,198.0945830490905L256.36,198.67585408223925L257.465,198.03031424765456L258.57,198.80354107452357L259.675,198.11602836777215L260.78,198.1841628656811L261.885,198.17597977051912L262.99,197.96100565911306L264.09499999999997,198.88149778414558L265.2,198.72780711150335L266.305,199.3680331011932L267.40999999999997,200.0645660831416L268.51500000000004,199.6190100906135L269.62,199.58334956730818L270.725,199.68134916771564L271.83,199.54998637759724L272.935,199.39008540881L274.04,199.17071478355126L275.145,199.65673862406976L276.25,199.2253169709869L277.355,199.68394755598533L278.46,199.52901844966428L279.565,200.57887433725267L280.67,199.48791919988594L281.775,199.31093628099498L282.88,198.92950754868133L283.985,198.74953088414807L285.09,199.48034637895577L286.195,199.06924176635408L287.3,200.04822255818056L288.405,199.83069109291225L289.51,199.69299077461815L290.615,198.8487055860296L291.72,199.33359873385442L292.825,199.1748882084296L293.93,197.81692873423862L295.035,198.00098147902116L296.14,198.14809797011594L297.245,198.9171233458501L298.35,198.98437196537014L299.455,198.52209399306895L300.56,198.97426708203636L301.665,198.46633511611813L302.77,199.07080318416115L303.875,198.5283323795124L304.98,198.57946428574115L306.085,198.57057013854882L307.19,198.39820699185913L308.295,199.12439669462503L309.4,199.00103467791763L310.505,199.5079318893899L311.60999999999996,200.06122480102184L312.71500000000003,199.70623412677753L313.82,199.67725863558184L314.925,199.75502271636554L316.03000000000003,199.64945026968687L317.135,199.52070066990507L318.24,199.3438511116891L319.345,199.73353189003552L320.45,199.38580523951725L321.555,199.75458235775292L322.66,199.62911876163133L323.765,200.47714958765178L324.87,199.59471927249768L325.97499999999997,199.45067839018304L327.08,199.14035328073987L328.185,198.9929288144615L329.28999999999996,199.5861842526289L330.39500000000004,199.25068855941615L331.5,200.0482225581761L332.605,199.87056650985582L333.71,199.75775200713048L334.815,199.06619615577483L335.92,199.46246901377265L337.025,199.3315299381881L338.13,198.21498607458105L339.235,198.3642518724738L340.34,198.48346884020805L341.445,199.11570366517455L342.55,199.17016023765694L343.655,198.78721292456072L344.76,199.15985836688387L345.86499999999995,198.73827830694782L346.96999999999997,199.237960119178L348.075,198.78691894474295L349.17999999999995,198.82806577527774L350.28499999999997,198.81939548323695L351.39000000000004,198.67463909476191L352.49499999999995,199.27838146378977L353.6,199.17469815391732L354.70500000000004,199.5970808981922L355.80999999999995,200.0590901772102L356.915,199.7620988040447L358.02000000000004,199.73755471202992L359.125,199.80244268119222L360.23,199.71362604545723L361.33500000000004,199.60517869810315L362.44,199.45609702710092L363.545,199.7834348729765L364.65000000000003,199.49033895902187L365.755,199.80069611344595L366.86,199.6946178020474L367.96500000000003,200.41043771222218L369.07,199.6649156222816L370.175,199.54272893329093L371.28000000000003,199.2795438280639L372.385,199.1539554161216L373.49,199.6563536559839L374.59499999999997,199.37123993642035L375.7,200.04822255818618L376.805,199.8971695911326L377.90999999999997,199.80104620846788L379.015,199.21188753276718L380.12,199.54896898992217L381.22499999999997,199.43687923284432L382.33,198.4832251403861L383.435,198.6095250403296L384.53999999999996,198.71034066528054L385.645,199.2502953707601L386.75,199.29631947398207L387.85499999999996,198.96757784751807L388.96,199.28635283807685L390.06500000000005,198.92396763244932L391.16999999999996,199.35230591652456L392.275,198.96412608234118L393.38000000000005,198.99873331281083L394.48499999999996,198.99051768497216L395.59000000000003,198.86507879301647L396.69500000000005,199.38464808023764L397.8,199.29475047885177L398.90500000000003,199.65881350603124L400.01000000000005,200.05760954023015L401.115,199.80091266902485L402.22,199.77951653173733L403.325,199.8354975589585L404.43,199.7584332673195L405.535,199.66425547672642L406.64,199.53471709290142L407.745,199.8184433277067L408.85,199.56378700749323L409.955,199.83314693534115L411.06,199.74078095907223L412.165,200.36334831173428L413.27,199.71453920951043L414.375,199.6078989514163L415.48,199.37823388756993L416.585,199.26829533339043L417.69,199.70625118933657L418.795,199.45708771421215L419.9,200.0482225581873L421.005,199.91616829215397L422.11,199.83200837438045L423.215,199.31622490643545L424.32,199.6110017886767L425.425,199.51253312997093L426.53,198.6761157106361L427.635,198.78613833065614L428.73999999999995,198.8739218748767L429.84499999999997,199.34746842519544L430.95,199.38752403834292L432.05499999999995,199.09813927293038L433.15999999999997,199.37803714372836L434.26500000000004,199.0587293321268L435.36999999999995,199.43539640639838L436.475,199.09305770099496L437.58000000000004,199.1230621449701L438.68499999999995,199.11533235910335L439.79,199.00415435672733L440.89500000000004,199.4623478989569L442,199.38263640607792L443.105,199.70405999155048L444.21000000000004,200.0565230240779L445.315,199.82942861600634L446.42,199.81038140751124L447.52500000000003,199.85983927161652L448.63,199.79146756207373L449.735,199.7078599865664L450.84000000000003,199.59281249568218L451.945,199.8443416296698L453.05,199.61818274401364L454.15500000000003,199.85720678240256L455.26,199.77504523636483L456.365,200.3283582635308L457.46999999999997,199.75145237363304L458.575,199.65642882630314L459.68,199.451803668942L460.78499999999997,199.35362208347965L461.89,199.7435267577231L462.995,199.52128678599786L464.09999999999997,200.04822255819064L465.205,199.9304054276496L466.31,199.8552343861033L467.41499999999996,199.39457230458075L468.52,199.6576295142733L469.625,199.56945631359926L470.72999999999996,198.8213940180274L471.835,198.9192885736038L472.94000000000005,198.99736808098052L474.04499999999996,199.42087127342532L475.15,199.4564850088566L476.25500000000005,199.1969532655363L477.35999999999996,199.44749356592672L478.46500000000003,199.16091614000416L479.57000000000005,199.4984613118316L480.675,199.19100694817126L481.78000000000003,199.21760222176042L482.88500000000005,199.21032925023187L483.99,199.11010204191857L485.095,199.52159332460565L486.2,199.44970908263585L487.305,199.7386220787948L488.41,200.05569233697705L489.515,199.8512495150233L490.62,199.83402047525823L491.725,199.87849857188L492.83,199.81681214423776L493.935,199.74134302560938L495.04,199.63746091687537L496.145,199.86426230458696L497.25,199.6600585907838L498.355,199.87574445353877L499.46,199.80146719869327L500.565,200.30135434116715L501.67,199.77996387315213L502.775,199.69394358117867L503.88,199.50872096583169L504.985,199.41968832350028L506.09,199.77241133348983L507.195,199.5710737415142L508.3,200.04822255818954L509.405,199.94146384651646L510.51,199.87328880834087L511.61499999999995,199.4555217730103L512.72,199.6939309530825L513.825,199.61380706115213L514.93,198.93467124360737L516.035,199.02318767645465L517.14,199.0937673044516L518.245,199.47823437501202L519.35,199.51041681849432L520.455,199.2742889615861L521.56,199.50189269035224L522.665,199.24100835949127L523.77,199.54792623086084L524.875,199.26788861565254L525.98,199.29186101348273L527.085,199.2849998555112L528.1899999999999,199.1934391133629L529.295,199.56822770586433L530.4,199.50254142070153L531.505,199.76586509167754L532.61,200.05503710992105L533.715,199.86847313304122L534.8199999999999,199.85269191101477L535.925,199.89324668949098L537.0300000000001,199.8368577186578L538.135,199.76784319483048L539.24,199.67282143208888L540.3449999999999,199.88004944721277L541.45,199.69326702618184L542.5550000000001,199.89045482536167L543.66,199.82244768550578L544.765,200.27989789838L545.87,199.80263273364983L546.975,199.7237897709514L548.08,199.5540322747651L549.1850000000001,199.47231620782532L550.29,199.79543501276092L551.395,199.61078330958156L552.5,200.0482225581873L553.605,199.9502948436238L554.71,199.88771549440472L555.815,199.50425416030544L556.92,199.72297351295342L558.025,199.6493107773113L559.13,199.02540644801297L560.235,199.10646061953736L561.34,199.1710750681646L562.445,199.52426408420823L563.55,199.55371854508417L564.655,199.33641782801618L565.76,199.54562044304961L566.865,199.305426178015L567.97,199.58773346956139L569.0749999999999,199.32979497316384L570.18,199.35168931785324L571.285,199.34519389781445L572.39,199.26065714136516L573.495,199.60586307071964L574.6,199.54520239957935L575.7049999999999,199.7878753885698L576.81,200.0545074451511L577.9150000000001,199.88240376650703L579.02,199.86780176096008L580.125,199.90518804783648L581.23,199.853097085882L582.3349999999999,199.78932305588177L583.44,199.70149834539305L584.5450000000001,199.89285938837932L585.65,199.72022707007534L586.755,199.90240359564797L587.86,199.83949835032504L588.965,200.2624513911088L590.07,199.82107457621728L591.1750000000001,199.74808305366506L592.28,199.5909321972088L593.385,199.51519624485667L594.49,199.81420367110024L595.595,199.64317039017655L596.7,200.04822255817945L597.805,199.95750457883918L598.91,199.89949944649132L600.015,199.54407916142856L601.12,199.74671924938275L602.225,199.67835341974308L603.33,199.09966536923585L604.435,199.17464519927663L605.54,199.23440569023677L606.645,199.56198968987596L607.75,199.58922517998056L608.855,199.38738646436477L609.96,199.5815102404212L611.0649999999999,199.35832221223623L612.17,199.6204360029946L613.275,199.3806759974089L614.38,199.40088506334672L615.485,199.39471309959993L616.59,199.31597994644332L617.6949999999999,199.63685237922007L618.8,199.58034573186842L619.9050000000001,199.8060152278953L621.01,200.05407072514438L622.115,199.89389499309985L623.2199999999999,199.88027123865893L624.325,199.9150470622882L625.4300000000001,199.8665105086857L626.535,199.8070727880287L627.64,199.72520562138848L628.745,199.9034539844123L629.85,199.74253426594345L630.955,199.91229445047244L632.0600000000001,199.8536184342932L633.165,200.24799736189672L634.27,199.83635967824088L635.375,199.76822646266265L636.48,199.62154154643542L637.585,199.55078106855876L638.69,199.82978566652764L639.795,199.67006969041964L640.9,200.04822255817274L642.005,199.96349758424185L643.11,199.90929870400058L644.215,199.57721012215526L645.32,199.7664816224841L646.425,199.70253384812958L647.53,199.1615168510422L648.635,199.2314598649198L649.74,199.2871967116434L650.845,199.5934493314604L651.9499999999999,199.6188460303857L653.055,199.42992286196275L654.16,199.61147409037014L655.265,199.40250141458662L656.37,199.6477599571045L657.475,199.42320494454538L658.5799999999999,199.44202107859192L659.685,199.43613532749467L660.7900000000001,199.36227434170155L661.895,199.66279415962822L663,199.6097759698002L664.105,199.8212118297957L665.21,200.05370472805382L666.3149999999999,199.90352888384214L667.42,199.8907291188411L668.525,199.92331863833374L669.63,199.87776829603956L670.735,199.8219754275716L671.84,199.7451174123145L672.9449999999999,199.9123556168233L674.05,199.76128361257375L675.155,199.92061075165248L676.26,199.86549492712047L677.365,200.23583567722702L678.47,199.8492251692678L679.5749999999999,199.7851871538524L680.68,199.64732354419806L681.785,199.5807643063673L682.89,199.84291937508723L683.995,199.69275032654662L685.1,200.04822255816825L686.2049999999999,199.96855416434545L687.31,199.91756961653783L688.415,199.60518329275243L689.52,199.78317305226258L690.625,199.72296367076126L691.7299999999999,199.21379211771182L692.8349999999999,199.2794941722801L693.9399999999999,199.33184403852107L695.045,199.62006472433146L696.15,199.64391403378997L697.2550000000001,199.46593305438893L698.3599999999999,199.636848986148L699.4649999999999,199.43992676292893L700.5699999999999,199.67091428972452L701.675,199.45925562841725L702.7800000000001,199.47690221873506L703.8850000000001,199.47127040405246L704.9899999999999,199.40155459604034L706.0949999999999,199.68481244571348L707.2,199.6347630087548L708.3050000000001,199.83411820342792L709.4100000000001,200.05339379166406L710.5150000000001,199.9117160054391L711.6199999999999,199.89961925153816L712.725,199.93035239527592L713.83,199.88734433915755L714.9350000000001,199.83465573164713L716.0400000000001,199.76206506961952L717.1450000000001,199.9199344325741L718.25,199.7772515800852L719.355,199.9276955091653L720.46,199.87561570152093L721.565,200.2254687631144L722.6700000000001,199.8601953008014L723.775,199.7996534784262L724.88,199.6693203641084L725.985,199.6063531125621L727.09,199.85413146378502L728.195,199.7121181817371L729.3000000000001,200.04822255816268L730.405,199.97287468395473L731.51,199.92463861953266L732.615,199.62909835886228L733.72,199.79744713121198L734.825,199.74043972264894L735.9300000000001,199.25852209473337L737.035,199.32060698185524L738.14,199.370068714416L739.245,199.6428578287112L740.35,199.6653879926601L741.455,199.49678901814931L742.5600000000001,199.65859796011316L743.665,199.47201314299048L744.77,199.6907709882332L745.875,199.49018048698798L746.98,199.50683202243704L748.085,199.50142632709225L749.1899999999999,199.4352774316389L750.295,199.70372067784774L751.4,199.65622645136906L752.505,199.84520753955823L753.61,200.05312655924467L754.715,199.91875425529054L755.8199999999999,199.9072638923724L756.925,199.93640233664988L758.03,199.89558314817688L759.135,199.84556817777627L760.24,199.7766537426688L761.345,199.92646003653482L762.4499999999999,199.7910040855524L763.555,199.93379887744996L764.66,199.88433678233284L765.765,200.216533288401L766.87,199.86965312229057L767.975,199.81212869856518L769.0799999999999,199.68829442267912L770.185,199.62843114052552L771.29,199.86380769614982L772.395,199.72883718566496L773.5,200.04822255815932L774.6049999999999,199.9766061703343L775.7099999999999,199.9307453950181L776.8149999999999,199.64976323875482L777.92,199.8097843285995L779.025,199.75554812256684L780.1300000000001,199.29720153319525L781.2349999999999,199.35616721454636L782.3399999999999,199.4031389140253L783.4449999999999,199.66258213184105L784.55,199.68397524133678L785.6550000000001,199.52350348633155L786.7600000000001,199.6774322928429L787.8649999999999,199.49980617077625L788.9699999999999,199.70797483162323L790.075,199.51698013501354L791.1800000000001,199.53277547652237L792.2850000000001,199.52757193527088L793.3900000000001,199.46452245927478L794.4949999999999,199.72012205599057L795.6,199.67484860485533L796.705,199.85483112292445L797.8100000000001,200.0528945951358L798.9150000000001,199.92486503128248L800.0200000000001,199.913902674978L801.125,199.94165744716415L802.23,199.90274118780718L803.335,199.85505127935625L804.44,199.78933441736615L805.5450000000001,199.93213346024373L806.65,199.80296333501195L807.755,199.93910758653556L808.86,199.89192407038857L809.965,200.208757750094L811.07,199.87788502418832L812.1750000000001,199.82298928296242L813.28,199.7048163529283L814.385,199.64766011248824L815.49,199.8722371024316L816.595,199.74340504300557L817.7,200.04822255816043L818.8050000000001,199.97985895511744L819.91,199.93606989747258L821.015,199.66778483484273L822.12,199.82054575520758L823.225,199.76872961114842L824.33,199.33095500736772L825.4350000000001,199.38720530065L826.54,199.4320097169367L827.645,199.67980538195994L828.75,199.70020902050922L829.855,199.5468403147603L830.96,199.69388873727308L832.0649999999999,199.52409529152231L833.17,199.7230128728689L834.275,199.54041079047641L835.38,199.5554622325277L836.485,199.55044015241435L837.59,199.49010680131232L838.6949999999999,199.73447334527873L839.8,199.69114638836913L840.905,199.86325521737078L842.01,200.05269150226016L843.115,199.9302163084504L844.22,199.9197174970233L845.3249999999999,199.94626124712667L846.43,199.90901331726602L847.535,199.86336235732387L848.64,199.80045007264366L849.745,199.93710766202733L850.85,199.8134507220341L851.9549999999999,199.94376384636797L853.06,199.89858016497593L854.165,200.20193518429625L855.27,199.88510941999004L856.375,199.83252247505482L857.4799999999999,199.71932174474034L858.5849999999999,199.66454538228982L859.6899999999999,199.87964051432445L860.795,199.75620219486777L861.9,200.04822255815708L863.0050000000001,199.98271745123162L864.1099999999999,199.94074986915507L865.2149999999999,199.68362789597663L866.3199999999999,199.83000806328417L867.425,199.78032199680206L868.5300000000001,199.36064483732068L869.6350000000001,199.41451172093798L870.7399999999999,199.45741412309542L871.8449999999999,199.69496350352094L872.95,199.71449893884056L874.0550000000001,199.56738651550043L875.1600000000001,199.70837995989544L876.2650000000001,199.5454877101913L877.3699999999999,199.73625989283724L878.475,199.56105460415765L879.58,199.5754542313483L880.6850000000001,199.57059568142782L881.7900000000001,199.51266030278754L882.8950000000001,199.74712677413063L884,199.70551858642511L885.105,199.87068532274014L886.21,200.05251234133902L887.315,199.93493783742974L888.4200000000001,199.9248489223764L889.525,199.95032469007742L890.63,199.9145502421622L891.735,199.87070050817098L892.84,199.81026619069902L893.945,199.94150108778638L895.0500000000001,199.8227152254216L896.155,199.9478778699834L897.26,199.90446214506596L898.365,200.19590506284257L899.47,199.89149578726824L900.575,199.84095125096275L901.6800000000001,199.7321488661174L902.785,199.67947955243275L903.89,199.88618956163626L904.995,199.76752443704518L906.1,200.04822255815708L907.205,199.98524734249244L908.3100000000001,199.944892533129L909.415,199.69765434035395L910.52,199.83838677742284L911.625,199.79058855057238L912.73,199.38694333461365L913.835,199.43870301692104L914.9399999999999,199.47992406313728L916.045,199.708396762501L917.15,199.72716484442302L918.255,199.58560064044136L919.36,199.72122844383063L920.465,199.5644581154645L921.5699999999999,199.748008991818L922.675,199.5793670243601L923.78,199.5931912763092L924.885,199.58848065399107L925.99,199.5326762835396L927.095,199.75835832533235L928.1999999999999,199.71827777682645L929.305,199.8772825752219L930.41,200.05235323795208L931.515,199.9391314335254L932.62,199.92940729219757L933.725,199.95393490543432L934.8299999999999,199.91947035175298L935.935,199.87722219263048L937.04,199.8189914777939L938.145,199.94540688645918L939.25,199.8309527195622L940.3549999999999,199.95153639451982L941.4599999999999,199.9096936756088L942.5649999999999,200.19054095989864L943.67,199.89717764784118L944.775,199.84845134370994L945.8800000000001,199.74356440938888L946.9849999999999,199.69277226270077L948.0899999999999,199.8920196541442L949.1949999999999,199.77760522416L950.3,200.04822255815708L951.4050000000001,199.9875005057799L952.5100000000001,199.94858260345623L953.6149999999999,199.7101502094696L954.7199999999999,199.84585229635692L955.825,199.7997374927588L956.9300000000001,199.41038241221983L958.0350000000001,199.46026714598807L959.1400000000001,199.49999234294722L960.2449999999999,199.72037464471987L961.35,199.7384601389013L962.455,199.60184610385025L963.5600000000001,199.7326898520616L964.6650000000001,199.5813829655031L965.7700000000001,199.75849269532796L966.875,199.59570949388672L967.98,199.6090225114821L969.085,199.6044461800008L970.19,199.55054663415584L971.2950000000001,199.76838731102833L972.4,199.72967243463881L973.505,199.8831751079197L974.61,200.05221111020555L975.715,199.94287811207167L976.82,199.93348043470388L977.9250000000001,199.95716126823797L979.03,199.92386794183977L980.135,199.88305207051656L981.24,199.82679227416438L982.345,199.9488993223467L983.45,199.83831941837906L984.5550000000001,199.95480861689222L985.66,199.91437344528953L986.765,200.1857419512725L987.87,199.90226162450787L988.975,199.85516312809725L990.08,199.75378147474086L991.1850000000001,199.70467100854555L992.29,199.89723905914056L993.395,199.78663127418628L994.5,200.04822255815594L995.605,199.98951845839403L996.71,199.9518878982955L997.8149999999999,199.7213445660703L998.92,199.85254111807998L1000.025,199.80793566986796L1001.13,199.43138842221288L1002.235,199.4795953479849L1003.34,199.51798212942546L1004.4449999999999,199.73111335369617L1005.55,199.74858818368367L1006.655,199.6164146437206L1007.76,199.74296948528655L1008.865,199.59656465241326L1009.97,199.76789783705436L1011.0749999999999,199.6103725183805L1012.18,199.6232286416228L1013.285,199.6187746290335L1014.39,199.56658661478033L1015.495,199.77739021139243L1016.6,199.73990256665743L1017.7049999999999,199.8884660903952L1018.81,200.05208347590036L1019.915,199.94624314300447L1021.02,199.93713912936104L1022.125,199.96005970315036L1023.2299999999999,199.9278190483795L1024.335,199.8882906912229L1025.44,199.83380278712957L1026.545,199.9520383310061L1027.65,199.84494143185037L1028.755,199.95775041515418L1029.86,199.9185811702927L1030.965,200.18142649170454L1032.07,199.9068338914788L1033.175,199.86120008952065L1034.28,199.76297239099662L1035.385,199.7153759900452L1036.49,199.90193537920413L1037.595,199.79475370922444L1038.7,200.04822255815483L1039.805,199.99133482163975L1040.91,199.95486335310076L1042.015,199.73142301191044L1043.12,199.858563873005L1044.225,199.8153183469813L1045.33,199.45030711043992L1046.435,199.4970049823026L1047.54,199.53418809120106L1048.645,199.74078836208932L1049.75,199.7577140737916L1050.855,199.62954316650067L1051.96,199.75223410371018L1053.065,199.6102488677885L1054.17,199.7763762592102L1055.2749999999999,199.62359225936896L1056.3799999999999,199.63603792223324L1057.485,199.63169567199228L1058.59,199.58105271718608L1059.695,199.78551064688685L1060.8,199.74913098278694L1061.905,199.89323952725601L1063.01,200.0519683133949L1064.115,199.94927969972701L1065.22,199.94044105322385L1066.325,199.9626757942805L1067.43,199.93138566442695L1068.5349999999999,199.893020055356L1069.6399999999999,199.84013249477255L1070.745,199.9548728169068L1071.85,199.85092168623888L1072.9550000000002,199.96040740671359L1074.0600000000002,199.9223819456716L1075.165,200.17752797540933L1076.27,199.91096485356354L1077.375,199.86665496994257L1078.48,199.7712780238512L1079.585,199.72505089725672L1080.6899999999998,199.90618025925687L1081.7949999999998,199.80209615439568L1082.9,200.0482225581537L1084.005,199.99297711326022L1085.1100000000001,199.95755394176112L1086.2150000000001,199.74053753136513L1087.32,199.86401117616077L1088.425,199.82199634456148L1089.53,199.46742181141556L1090.635,199.51275618579962L1091.74,199.54885182563478L1092.845,199.74954357468806L1093.95,199.76597323676467L1095.055,199.64142605452625L1096.16,199.7606205681264L1097.265,199.62263730113693L1098.3700000000001,199.7840526403301L1099.4750000000001,199.63556267775525L1100.58,199.64763786654237L1101.685,199.64339803065312L1102.79,199.59415575300324L1103.895,199.79286668825264L1105,199.7574915617001L1106.105,199.8975645121293L1107.21,200.0518639595148L1108.315,199.95203153821674L1109.42,199.94343367961133L1110.525,199.96504707029894L1111.63,199.93461883999262L1112.735,199.89730770471843L1113.84,199.84587159267826L1114.945,199.95744308041748L1116.05,199.85634501920703L1117.155,199.9628172008356L1118.26,199.9258294515848L1119.365,200.17399146358784L1120.47,199.91471259663254L1121.575,199.87160430176937L1122.68,199.77881464523801L1123.785,199.7338308727968L1124.89,199.91003286303288L1125.995,199.80876072169306L1127.1,200.0482225581526L1128.205,199.9944680728082L1129.31,199.9599968373594L1130.415,199.7488137754419L1131.52,199.86895795931474L1132.625,199.82806132350345L1133.73,199.48296692744117L1134.835,199.52706421793346L1135.94,199.56217329602464L1137.045,199.7574981241419L1138.1499999999999,199.77347781241292L1139.2549999999999,199.6522243006998L1140.36,199.7682422557428L1141.465,199.6338970717661L1142.57,199.79103031159343L1143.675,199.64644456019758L1144.78,199.6581839506554L1145.885,199.65403821766185L1146.99,199.6060705930994L1148.095,199.79955629810863L1149.2,199.76509540607108L1150.305,199.90149839665654L1151.4099999999999,200.05176903340447L1152.5149999999999,199.95453499421876L1153.62,199.94615643975732L1154.725,199.9672047091892L1155.8300000000002,199.9375609954303L1156.9350000000002,199.90120977572474L1158.04,199.85109506173285L1159.145,199.95978263099076L1160.25,199.86128198771448L1161.355,199.96501108270056L1162.46,199.92896835125123L1163.5649999999998,200.17077123609502L1164.6699999999998,199.91812547006808L1165.775,199.8761118023132L1166.88,199.78567907817578L1167.9850000000001,199.7418284775196L1169.0900000000001,199.91354247859152L1170.195,199.81483249627362L1171.3,200.0482225581537L1172.405,199.9958266559977L1173.51,199.96222303386253L1174.615,199.75635653048886L1175.72,199.87346672455445L1176.825,199.83358975580197L1177.93,199.49713805888499L1179.035,199.5401087419846L1180.14,199.5743194331559L1181.2450000000001,199.76475148360265L1182.3500000000001,199.78032145414255L1183.455,199.66207238539872L1184.56,199.7751938919202L1185.665,199.6441678342602L1186.77,199.7973956399989L1187.875,199.65637232367945L1188.98,199.6678061781321L1190.085,199.6637471296038L1191.19,199.61694351696448L1192.295,199.80566143859875L1193.4,199.77203549045137L1194.505,199.90508918424206L1195.61,200.05168237907338L1196.715,199.95682049287916L1197.82,199.94864235730097L1198.925,199.96917482764013" style="fill: none;" fill="none"></path></g></g></g></g><g opacity="0.2"><g><g><g><path stroke="rgb(0, 119, 187)" stroke-width="2px" d="M111.605,167.68465232849155L112.71000000000001,179.22690582275425L113.815,72.64656257629423L114.92,272.22643089294473L116.02499999999999,175.18161964416535L117.13,-8.625658035278093L118.23500000000001,226.13732528686558L119.33999999999999,220.76243591308628L120.44500000000001,317.7796096801762L121.55,209.43527412414585L122.655,126.29091453552277L123.76,270.0076217651371L124.865,118.24600410461454L125.97,295.045978546143L127.075,111.94105339050321L128.18,206.78387832641636L129.285,197.13599395751987L130.39,170.4526062011722L131.495,317.4707908630375L132.6,178.793718338013L133.70499999999998,282.9635925292973L134.81,291.6171283721928L135.915,140.66841316223176L137.02,194.8342723846439L138.125,212.81726074218784L139.23,181.82843399047886L140.335,177.68040847778354L141.44,169.1975040435794L142.545,266.48264122009317L143.65,139.53527641296418L144.755,263.53324127197305L145.86,177.8270072937015L146.965,348.54132843017624L148.07,44.79699325561552L149.175,174.0641040802005L150.28,144.19159126281767L151.385,172.76754570007358L152.49,305.6077022552494L153.595,139.01857566833525L154.7,343.8844127655034L155.80499999999998,167.68465232849155L156.91,179.22690582275425L158.01500000000001,72.64656257629423L159.12,272.22643089294473L160.225,175.18161964416535L161.33,-8.625658035278093L162.435,226.13732528686558L163.54,220.76243591308628L164.64499999999998,317.7796096801762L165.75,209.43527412414585L166.855,126.29091453552277L167.96,270.0076217651371L169.065,118.24600410461454L170.17,295.045978546143L171.275,111.94105339050321L172.38,206.78387832641636L173.48499999999999,197.13599395751987L174.58999999999997,170.4526062011722L175.69500000000002,317.4707908630375L176.8,178.793718338013L177.90499999999997,282.9635925292973L179.01000000000002,291.6171283721928L180.115,140.66841316223176L181.22,194.8342723846439L182.32500000000002,212.81726074218784L183.43,181.82843399047886L184.535,177.68040847778354L185.64000000000001,169.1975040435794L186.745,266.48264122009317L187.85,139.53527641296418L188.95499999999998,263.53324127197305L190.06,177.8270072937015L191.165,348.54132843017624L192.26999999999998,44.79699325561552L193.375,174.0641040802005L194.48,144.19159126281767L195.58499999999998,172.76754570007358L196.69000000000003,305.6077022552494L197.79500000000002,139.01857566833525L198.9,343.8844127655034L200.00500000000002,167.68465232849155L201.11,179.22690582275425L202.215,72.64656257629423L203.32,272.22643089294473L204.425,175.18161964416535L205.53,-8.625658035278093L206.635,226.13732528686558L207.74,220.76243591308628L208.845,317.7796096801762L209.95,209.43527412414585L211.055,126.29091453552277L212.16,270.0076217651371L213.265,118.24600410461454L214.36999999999998,295.045978546143L215.475,111.94105339050321L216.57999999999998,206.78387832641636L217.68499999999997,197.13599395751987L218.79000000000002,170.4526062011722L219.895,317.4707908630375L221,178.793718338013L222.10500000000002,282.9635925292973L223.21,291.6171283721928L224.315,140.66841316223176L225.42000000000002,194.8342723846439L226.525,212.81726074218784L227.63,181.82843399047886L228.73499999999999,177.68040847778354L229.84,169.1975040435794L230.945,266.48264122009317L232.04999999999998,139.53527641296418L233.155,263.53324127197305L234.26,177.8270072937015L235.36499999999998,348.54132843017624L236.47000000000003,44.79699325561552L237.575,174.0641040802005L238.67999999999998,144.19159126281767L239.78500000000003,172.76754570007358L240.89000000000001,305.6077022552494L241.995,139.01857566833525L243.1,343.8844127655034L244.205,167.68465232849155L245.31,179.22690582275425L246.415,72.64656257629423L247.52,272.22643089294473L248.625,175.18161964416535L249.73,-8.625658035278093L250.835,226.13732528686558L251.94,220.76243591308628L253.045,317.7796096801762L254.15,209.43527412414585L255.255,126.29091453552277L256.36,270.0076217651371L257.465,118.24600410461454L258.57,295.045978546143L259.675,111.94105339050321L260.78,206.78387832641636L261.885,197.13599395751987L262.99,170.4526062011722L264.09499999999997,317.4707908630375L265.2,178.793718338013L266.305,282.9635925292973L267.40999999999997,291.6171283721928L268.51500000000004,140.66841316223176L269.62,194.8342723846439L270.725,212.81726074218784L271.83,181.82843399047886L272.935,177.68040847778354L274.04,169.1975040435794L275.145,266.48264122009317L276.25,139.53527641296418L277.355,263.53324127197305L278.46,177.8270072937015L279.565,348.54132843017624L280.67,44.79699325561552L281.775,174.0641040802005L282.88,144.19159126281767L283.985,172.76754570007358L285.09,305.6077022552494L286.195,139.01857566833525L287.3,343.8844127655034L288.405,167.68465232849155L289.51,179.22690582275425L290.615,72.64656257629423L291.72,272.22643089294473L292.825,175.18161964416535L293.93,-8.625658035278093L295.035,226.13732528686558L296.14,220.76243591308628L297.245,317.7796096801762L298.35,209.43527412414585L299.455,126.29091453552277L300.56,270.0076217651371L301.665,118.24600410461454L302.77,295.045978546143L303.875,111.94105339050321L304.98,206.78387832641636L306.085,197.13599395751987L307.19,170.4526062011722L308.295,317.4707908630375L309.4,178.793718338013L310.505,282.9635925292973L311.60999999999996,291.6171283721928L312.71500000000003,140.66841316223176L313.82,194.8342723846439L314.925,212.81726074218784L316.03000000000003,181.82843399047886L317.135,177.68040847778354L318.24,169.1975040435794L319.345,266.48264122009317L320.45,139.53527641296418L321.555,263.53324127197305L322.66,177.8270072937015L323.765,348.54132843017624L324.87,44.79699325561552L325.97499999999997,174.0641040802005L327.08,144.19159126281767L328.185,172.76754570007358L329.28999999999996,305.6077022552494L330.39500000000004,139.01857566833525L331.5,343.8844127655034L332.605,167.68465232849155L333.71,179.22690582275425L334.815,72.64656257629423L335.92,272.22643089294473L337.025,175.18161964416535L338.13,-8.625658035278093L339.235,226.13732528686558L340.34,220.76243591308628L341.445,317.7796096801762L342.55,209.43527412414585L343.655,126.29091453552277L344.76,270.0076217651371L345.86499999999995,118.24600410461454L346.96999999999997,295.045978546143L348.075,111.94105339050321L349.17999999999995,206.78387832641636L350.28499999999997,197.13599395751987L351.39000000000004,170.4526062011722L352.49499999999995,317.4707908630375L353.6,178.793718338013L354.70500000000004,282.9635925292973L355.80999999999995,291.6171283721928L356.915,140.66841316223176L358.02000000000004,194.8342723846439L359.125,212.81726074218784L360.23,181.82843399047886L361.33500000000004,177.68040847778354L362.44,169.1975040435794L363.545,266.48264122009317L364.65000000000003,139.53527641296418L365.755,263.53324127197305L366.86,177.8270072937015L367.96500000000003,348.54132843017624L369.07,44.79699325561552L370.175,174.0641040802005L371.28000000000003,144.19159126281767L372.385,172.76754570007358L373.49,305.6077022552494L374.59499999999997,139.01857566833525L375.7,343.8844127655034L376.805,167.68465232849155L377.90999999999997,179.22690582275425L379.015,72.64656257629423L380.12,272.22643089294473L381.22499999999997,175.18161964416535L382.33,-8.625658035278093L383.435,226.13732528686558L384.53999999999996,220.76243591308628L385.645,317.7796096801762L386.75,209.43527412414585L387.85499999999996,126.29091453552277L388.96,270.0076217651371L390.06500000000005,118.24600410461454L391.16999999999996,295.045978546143L392.275,111.94105339050321L393.38000000000005,206.78387832641636L394.48499999999996,197.13599395751987L395.59000000000003,170.4526062011722L396.69500000000005,317.4707908630375L397.8,178.793718338013L398.90500000000003,282.9635925292973L400.01000000000005,291.6171283721928L401.115,140.66841316223176L402.22,194.8342723846439L403.325,212.81726074218784L404.43,181.82843399047886L405.535,177.68040847778354L406.64,169.1975040435794L407.745,266.48264122009317L408.85,139.53527641296418L409.955,263.53324127197305L411.06,177.8270072937015L412.165,348.54132843017624L413.27,44.79699325561552L414.375,174.0641040802005L415.48,144.19159126281767L416.585,172.76754570007358L417.69,305.6077022552494L418.795,139.01857566833525L419.9,343.8844127655034L421.005,167.68465232849155L422.11,179.22690582275425L423.215,72.64656257629423L424.32,272.22643089294473L425.425,175.18161964416535L426.53,-8.625658035278093L427.635,226.13732528686558L428.73999999999995,220.76243591308628L429.84499999999997,317.7796096801762L430.95,209.43527412414585L432.05499999999995,126.29091453552277L433.15999999999997,270.0076217651371L434.26500000000004,118.24600410461454L435.36999999999995,295.045978546143L436.475,111.94105339050321L437.58000000000004,206.78387832641636L438.68499999999995,197.13599395751987L439.79,170.4526062011722L440.89500000000004,317.4707908630375L442,178.793718338013L443.105,282.9635925292973L444.21000000000004,291.6171283721928L445.315,140.66841316223176L446.42,194.8342723846439L447.52500000000003,212.81726074218784L448.63,181.82843399047886L449.735,177.68040847778354L450.84000000000003,169.1975040435794L451.945,266.48264122009317L453.05,139.53527641296418L454.15500000000003,263.53324127197305L455.26,177.8270072937015L456.365,348.54132843017624L457.46999999999997,44.79699325561552L458.575,174.0641040802005L459.68,144.19159126281767L460.78499999999997,172.76754570007358L461.89,305.6077022552494L462.995,139.01857566833525L464.09999999999997,343.8844127655034L465.205,167.68465232849155L466.31,179.22690582275425L467.41499999999996,72.64656257629423L468.52,272.22643089294473L469.625,175.18161964416535L470.72999999999996,-8.625658035278093L471.835,226.13732528686558L472.94000000000005,220.76243591308628L474.04499999999996,317.7796096801762L475.15,209.43527412414585L476.25500000000005,126.29091453552277L477.35999999999996,270.0076217651371L478.46500000000003,118.24600410461454L479.57000000000005,295.045978546143L480.675,111.94105339050321L481.78000000000003,206.78387832641636L482.88500000000005,197.13599395751987L483.99,170.4526062011722L485.095,317.4707908630375L486.2,178.793718338013L487.305,282.9635925292973L488.41,291.6171283721928L489.515,140.66841316223176L490.62,194.8342723846439L491.725,212.81726074218784L492.83,181.82843399047886L493.935,177.68040847778354L495.04,169.1975040435794L496.145,266.48264122009317L497.25,139.53527641296418L498.355,263.53324127197305L499.46,177.8270072937015L500.565,348.54132843017624L501.67,44.79699325561552L502.775,174.0641040802005L503.88,144.19159126281767L504.985,172.76754570007358L506.09,305.6077022552494L507.195,139.01857566833525L508.3,343.8844127655034L509.405,167.68465232849155L510.51,179.22690582275425L511.61499999999995,72.64656257629423L512.72,272.22643089294473L513.825,175.18161964416535L514.93,-8.625658035278093L516.035,226.13732528686558L517.14,220.76243591308628L518.245,317.7796096801762L519.35,209.43527412414585L520.455,126.29091453552277L521.56,270.0076217651371L522.665,118.24600410461454L523.77,295.045978546143L524.875,111.94105339050321L525.98,206.78387832641636L527.085,197.13599395751987L528.1899999999999,170.4526062011722L529.295,317.4707908630375L530.4,178.793718338013L531.505,282.9635925292973L532.61,291.6171283721928L533.715,140.66841316223176L534.8199999999999,194.8342723846439L535.925,212.81726074218784L537.0300000000001,181.82843399047886L538.135,177.68040847778354L539.24,169.1975040435794L540.3449999999999,266.48264122009317L541.45,139.53527641296418L542.5550000000001,263.53324127197305L543.66,177.8270072937015L544.765,348.54132843017624L545.87,44.79699325561552L546.975,174.0641040802005L548.08,144.19159126281767L549.1850000000001,172.76754570007358L550.29,305.6077022552494L551.395,139.01857566833525L552.5,343.8844127655034L553.605,167.68465232849155L554.71,179.22690582275425L555.815,72.64656257629423L556.92,272.22643089294473L558.025,175.18161964416535L559.13,-8.625658035278093L560.235,226.13732528686558L561.34,220.76243591308628L562.445,317.7796096801762L563.55,209.43527412414585L564.655,126.29091453552277L565.76,270.0076217651371L566.865,118.24600410461454L567.97,295.045978546143L569.0749999999999,111.94105339050321L570.18,206.78387832641636L571.285,197.13599395751987L572.39,170.4526062011722L573.495,317.4707908630375L574.6,178.793718338013L575.7049999999999,282.9635925292973L576.81,291.6171283721928L577.9150000000001,140.66841316223176L579.02,194.8342723846439L580.125,212.81726074218784L581.23,181.82843399047886L582.3349999999999,177.68040847778354L583.44,169.1975040435794L584.5450000000001,266.48264122009317L585.65,139.53527641296418L586.755,263.53324127197305L587.86,177.8270072937015L588.965,348.54132843017624L590.07,44.79699325561552L591.1750000000001,174.0641040802005L592.28,144.19159126281767L593.385,172.76754570007358L594.49,305.6077022552494L595.595,139.01857566833525L596.7,343.8844127655034L597.805,167.68465232849155L598.91,179.22690582275425L600.015,72.64656257629423L601.12,272.22643089294473L602.225,175.18161964416535L603.33,-8.625658035278093L604.435,226.13732528686558L605.54,220.76243591308628L606.645,317.7796096801762L607.75,209.43527412414585L608.855,126.29091453552277L609.96,270.0076217651371L611.0649999999999,118.24600410461454L612.17,295.045978546143L613.275,111.94105339050321L614.38,206.78387832641636L615.485,197.13599395751987L616.59,170.4526062011722L617.6949999999999,317.4707908630375L618.8,178.793718338013L619.9050000000001,282.9635925292973L621.01,291.6171283721928L622.115,140.66841316223176L623.2199999999999,194.8342723846439L624.325,212.81726074218784L625.4300000000001,181.82843399047886L626.535,177.68040847778354L627.64,169.1975040435794L628.745,266.48264122009317L629.85,139.53527641296418L630.955,263.53324127197305L632.0600000000001,177.8270072937015L633.165,348.54132843017624L634.27,44.79699325561552L635.375,174.0641040802005L636.48,144.19159126281767L637.585,172.76754570007358L638.69,305.6077022552494L639.795,139.01857566833525L640.9,343.8844127655034L642.005,167.68465232849155L643.11,179.22690582275425L644.215,72.64656257629423L645.32,272.22643089294473L646.425,175.18161964416535L647.53,-8.625658035278093L648.635,226.13732528686558L649.74,220.76243591308628L650.845,317.7796096801762L651.9499999999999,209.43527412414585L653.055,126.29091453552277L654.16,270.0076217651371L655.265,118.24600410461454L656.37,295.045978546143L657.475,111.94105339050321L658.5799999999999,206.78387832641636L659.685,197.13599395751987L660.7900000000001,170.4526062011722L661.895,317.4707908630375L663,178.793718338013L664.105,282.9635925292973L665.21,291.6171283721928L666.3149999999999,140.66841316223176L667.42,194.8342723846439L668.525,212.81726074218784L669.63,181.82843399047886L670.735,177.68040847778354L671.84,169.1975040435794L672.9449999999999,266.48264122009317L674.05,139.53527641296418L675.155,263.53324127197305L676.26,177.8270072937015L677.365,348.54132843017624L678.47,44.79699325561552L679.5749999999999,174.0641040802005L680.68,144.19159126281767L681.785,172.76754570007358L682.89,305.6077022552494L683.995,139.01857566833525L685.1,343.8844127655034L686.2049999999999,167.68465232849155L687.31,179.22690582275425L688.415,72.64656257629423L689.52,272.22643089294473L690.625,175.18161964416535L691.7299999999999,-8.625658035278093L692.8349999999999,226.13732528686558L693.9399999999999,220.76243591308628L695.045,317.7796096801762L696.15,209.43527412414585L697.2550000000001,126.29091453552277L698.3599999999999,270.0076217651371L699.4649999999999,118.24600410461454L700.5699999999999,295.045978546143L701.675,111.94105339050321L702.7800000000001,206.78387832641636L703.8850000000001,197.13599395751987L704.9899999999999,170.4526062011722L706.0949999999999,317.4707908630375L707.2,178.793718338013L708.3050000000001,282.9635925292973L709.4100000000001,291.6171283721928L710.5150000000001,140.66841316223176L711.6199999999999,194.8342723846439L712.725,212.81726074218784L713.83,181.82843399047886L714.9350000000001,177.68040847778354L716.0400000000001,169.1975040435794L717.1450000000001,266.48264122009317L718.25,139.53527641296418L719.355,263.53324127197305L720.46,177.8270072937015L721.565,348.54132843017624L722.6700000000001,44.79699325561552L723.775,174.0641040802005L724.88,144.19159126281767L725.985,172.76754570007358L727.09,305.6077022552494L728.195,139.01857566833525L729.3000000000001,343.8844127655034L730.405,167.68465232849155L731.51,179.22690582275425L732.615,72.64656257629423L733.72,272.22643089294473L734.825,175.18161964416535L735.9300000000001,-8.625658035278093L737.035,226.13732528686558L738.14,220.76243591308628L739.245,317.7796096801762L740.35,209.43527412414585L741.455,126.29091453552277L742.5600000000001,270.0076217651371L743.665,118.24600410461454L744.77,295.045978546143L745.875,111.94105339050321L746.98,206.78387832641636L748.085,197.13599395751987L749.1899999999999,170.4526062011722L750.295,317.4707908630375L751.4,178.793718338013L752.505,282.9635925292973L753.61,291.6171283721928L754.715,140.66841316223176L755.8199999999999,194.8342723846439L756.925,212.81726074218784L758.03,181.82843399047886L759.135,177.68040847778354L760.24,169.1975040435794L761.345,266.48264122009317L762.4499999999999,139.53527641296418L763.555,263.53324127197305L764.66,177.8270072937015L765.765,348.54132843017624L766.87,44.79699325561552L767.975,174.0641040802005L769.0799999999999,144.19159126281767L770.185,172.76754570007358L771.29,305.6077022552494L772.395,139.01857566833525L773.5,343.8844127655034L774.6049999999999,167.68465232849155L775.7099999999999,179.22690582275425L776.8149999999999,72.64656257629423L777.92,272.22643089294473L779.025,175.18161964416535L780.1300000000001,-8.625658035278093L781.2349999999999,226.13732528686558L782.3399999999999,220.76243591308628L783.4449999999999,317.7796096801762L784.55,209.43527412414585L785.6550000000001,126.29091453552277L786.7600000000001,270.0076217651371L787.8649999999999,118.24600410461454L788.9699999999999,295.045978546143L790.075,111.94105339050321L791.1800000000001,206.78387832641636L792.2850000000001,197.13599395751987L793.3900000000001,170.4526062011722L794.4949999999999,317.4707908630375L795.6,178.793718338013L796.705,282.9635925292973L797.8100000000001,291.6171283721928L798.9150000000001,140.66841316223176L800.0200000000001,194.8342723846439L801.125,212.81726074218784L802.23,181.82843399047886L803.335,177.68040847778354L804.44,169.1975040435794L805.5450000000001,266.48264122009317L806.65,139.53527641296418L807.755,263.53324127197305L808.86,177.8270072937015L809.965,348.54132843017624L811.07,44.79699325561552L812.1750000000001,174.0641040802005L813.28,144.19159126281767L814.385,172.76754570007358L815.49,305.6077022552494L816.595,139.01857566833525L817.7,343.8844127655034L818.8050000000001,167.68465232849155L819.91,179.22690582275425L821.015,72.64656257629423L822.12,272.22643089294473L823.225,175.18161964416535L824.33,-8.625658035278093L825.4350000000001,226.13732528686558L826.54,220.76243591308628L827.645,317.7796096801762L828.75,209.43527412414585L829.855,126.29091453552277L830.96,270.0076217651371L832.0649999999999,118.24600410461454L833.17,295.045978546143L834.275,111.94105339050321L835.38,206.78387832641636L836.485,197.13599395751987L837.59,170.4526062011722L838.6949999999999,317.4707908630375L839.8,178.793718338013L840.905,282.9635925292973L842.01,291.6171283721928L843.115,140.66841316223176L844.22,194.8342723846439L845.3249999999999,212.81726074218784L846.43,181.82843399047886L847.535,177.68040847778354L848.64,169.1975040435794L849.745,266.48264122009317L850.85,139.53527641296418L851.9549999999999,263.53324127197305L853.06,177.8270072937015L854.165,348.54132843017624L855.27,44.79699325561552L856.375,174.0641040802005L857.4799999999999,144.19159126281767L858.5849999999999,172.76754570007358L859.6899999999999,305.6077022552494L860.795,139.01857566833525L861.9,343.8844127655034L863.0050000000001,167.68465232849155L864.1099999999999,179.22690582275425L865.2149999999999,72.64656257629423L866.3199999999999,272.22643089294473L867.425,175.18161964416535L868.5300000000001,-8.625658035278093L869.6350000000001,226.13732528686558L870.7399999999999,220.76243591308628L871.8449999999999,317.7796096801762L872.95,209.43527412414585L874.0550000000001,126.29091453552277L875.1600000000001,270.0076217651371L876.2650000000001,118.24600410461454L877.3699999999999,295.045978546143L878.475,111.94105339050321L879.58,206.78387832641636L880.6850000000001,197.13599395751987L881.7900000000001,170.4526062011722L882.8950000000001,317.4707908630375L884,178.793718338013L885.105,282.9635925292973L886.21,291.6171283721928L887.315,140.66841316223176L888.4200000000001,194.8342723846439L889.525,212.81726074218784L890.63,181.82843399047886L891.735,177.68040847778354L892.84,169.1975040435794L893.945,266.48264122009317L895.0500000000001,139.53527641296418L896.155,263.53324127197305L897.26,177.8270072937015L898.365,348.54132843017624L899.47,44.79699325561552L900.575,174.0641040802005L901.6800000000001,144.19159126281767L902.785,172.76754570007358L903.89,305.6077022552494L904.995,139.01857566833525L906.1,343.8844127655034L907.205,167.68465232849155L908.3100000000001,179.22690582275425L909.415,72.64656257629423L910.52,272.22643089294473L911.625,175.18161964416535L912.73,-8.625658035278093L913.835,226.13732528686558L914.9399999999999,220.76243591308628L916.045,317.7796096801762L917.15,209.43527412414585L918.255,126.29091453552277L919.36,270.0076217651371L920.465,118.24600410461454L921.5699999999999,295.045978546143L922.675,111.94105339050321L923.78,206.78387832641636L924.885,197.13599395751987L925.99,170.4526062011722L927.095,317.4707908630375L928.1999999999999,178.793718338013L929.305,282.9635925292973L930.41,291.6171283721928L931.515,140.66841316223176L932.62,194.8342723846439L933.725,212.81726074218784L934.8299999999999,181.82843399047886L935.935,177.68040847778354L937.04,169.1975040435794L938.145,266.48264122009317L939.25,139.53527641296418L940.3549999999999,263.53324127197305L941.4599999999999,177.8270072937015L942.5649999999999,348.54132843017624L943.67,44.79699325561552L944.775,174.0641040802005L945.8800000000001,144.19159126281767L946.9849999999999,172.76754570007358L948.0899999999999,305.6077022552494L949.1949999999999,139.01857566833525L950.3,343.8844127655034L951.4050000000001,167.68465232849155L952.5100000000001,179.22690582275425L953.6149999999999,72.64656257629423L954.7199999999999,272.22643089294473L955.825,175.18161964416535L956.9300000000001,-8.625658035278093L958.0350000000001,226.13732528686558L959.1400000000001,220.76243591308628L960.2449999999999,317.7796096801762L961.35,209.43527412414585L962.455,126.29091453552277L963.5600000000001,270.0076217651371L964.6650000000001,118.24600410461454L965.7700000000001,295.045978546143L966.875,111.94105339050321L967.98,206.78387832641636L969.085,197.13599395751987L970.19,170.4526062011722L971.2950000000001,317.4707908630375L972.4,178.793718338013L973.505,282.9635925292973L974.61,291.6171283721928L975.715,140.66841316223176L976.82,194.8342723846439L977.9250000000001,212.81726074218784L979.03,181.82843399047886L980.135,177.68040847778354L981.24,169.1975040435794L982.345,266.48264122009317L983.45,139.53527641296418L984.5550000000001,263.53324127197305L985.66,177.8270072937015L986.765,348.54132843017624L987.87,44.79699325561552L988.975,174.0641040802005L990.08,144.19159126281767L991.1850000000001,172.76754570007358L992.29,305.6077022552494L993.395,139.01857566833525L994.5,343.8844127655034L995.605,167.68465232849155L996.71,179.22690582275425L997.8149999999999,72.64656257629423L998.92,272.22643089294473L1000.025,175.18161964416535L1001.13,-8.625658035278093L1002.235,226.13732528686558L1003.34,220.76243591308628L1004.4449999999999,317.7796096801762L1005.55,209.43527412414585L1006.655,126.29091453552277L1007.76,270.0076217651371L1008.865,118.24600410461454L1009.97,295.045978546143L1011.0749999999999,111.94105339050321L1012.18,206.78387832641636L1013.285,197.13599395751987L1014.39,170.4526062011722L1015.495,317.4707908630375L1016.6,178.793718338013L1017.7049999999999,282.9635925292973L1018.81,291.6171283721928L1019.915,140.66841316223176L1021.02,194.8342723846439L1022.125,212.81726074218784L1023.2299999999999,181.82843399047886L1024.335,177.68040847778354L1025.44,169.1975040435794L1026.545,266.48264122009317L1027.65,139.53527641296418L1028.755,263.53324127197305L1029.86,177.8270072937015L1030.965,348.54132843017624L1032.07,44.79699325561552L1033.175,174.0641040802005L1034.28,144.19159126281767L1035.385,172.76754570007358L1036.49,305.6077022552494L1037.595,139.01857566833525L1038.7,343.8844127655034L1039.805,167.68465232849155L1040.91,179.22690582275425L1042.015,72.64656257629423L1043.12,272.22643089294473L1044.225,175.18161964416535L1045.33,-8.625658035278093L1046.435,226.13732528686558L1047.54,220.76243591308628L1048.645,317.7796096801762L1049.75,209.43527412414585L1050.855,126.29091453552277L1051.96,270.0076217651371L1053.065,118.24600410461454L1054.17,295.045978546143L1055.2749999999999,111.94105339050321L1056.3799999999999,206.78387832641636L1057.485,197.13599395751987L1058.59,170.4526062011722L1059.695,317.4707908630375L1060.8,178.793718338013L1061.905,282.9635925292973L1063.01,291.6171283721928L1064.115,140.66841316223176L1065.22,194.8342723846439L1066.325,212.81726074218784L1067.43,181.82843399047886L1068.5349999999999,177.68040847778354L1069.6399999999999,169.1975040435794L1070.745,266.48264122009317L1071.85,139.53527641296418L1072.9550000000002,263.53324127197305L1074.0600000000002,177.8270072937015L1075.165,348.54132843017624L1076.27,44.79699325561552L1077.375,174.0641040802005L1078.48,144.19159126281767L1079.585,172.76754570007358L1080.6899999999998,305.6077022552494L1081.7949999999998,139.01857566833525L1082.9,343.8844127655034L1084.005,167.68465232849155L1085.1100000000001,179.22690582275425L1086.2150000000001,72.64656257629423L1087.32,272.22643089294473L1088.425,175.18161964416535L1089.53,-8.625658035278093L1090.635,226.13732528686558L1091.74,220.76243591308628L1092.845,317.7796096801762L1093.95,209.43527412414585L1095.055,126.29091453552277L1096.16,270.0076217651371L1097.265,118.24600410461454L1098.3700000000001,295.045978546143L1099.4750000000001,111.94105339050321L1100.58,206.78387832641636L1101.685,197.13599395751987L1102.79,170.4526062011722L1103.895,317.4707908630375L1105,178.793718338013L1106.105,282.9635925292973L1107.21,291.6171283721928L1108.315,140.66841316223176L1109.42,194.8342723846439L1110.525,212.81726074218784L1111.63,181.82843399047886L1112.735,177.68040847778354L1113.84,169.1975040435794L1114.945,266.48264122009317L1116.05,139.53527641296418L1117.155,263.53324127197305L1118.26,177.8270072937015L1119.365,348.54132843017624L1120.47,44.79699325561552L1121.575,174.0641040802005L1122.68,144.19159126281767L1123.785,172.76754570007358L1124.89,305.6077022552494L1125.995,139.01857566833525L1127.1,343.8844127655034L1128.205,167.68465232849155L1129.31,179.22690582275425L1130.415,72.64656257629423L1131.52,272.22643089294473L1132.625,175.18161964416535L1133.73,-8.625658035278093L1134.835,226.13732528686558L1135.94,220.76243591308628L1137.045,317.7796096801762L1138.1499999999999,209.43527412414585L1139.2549999999999,126.29091453552277L1140.36,270.0076217651371L1141.465,118.24600410461454L1142.57,295.045978546143L1143.675,111.94105339050321L1144.78,206.78387832641636L1145.885,197.13599395751987L1146.99,170.4526062011722L1148.095,317.4707908630375L1149.2,178.793718338013L1150.305,282.9635925292973L1151.4099999999999,291.6171283721928L1152.5149999999999,140.66841316223176L1153.62,194.8342723846439L1154.725,212.81726074218784L1155.8300000000002,181.82843399047886L1156.9350000000002,177.68040847778354L1158.04,169.1975040435794L1159.145,266.48264122009317L1160.25,139.53527641296418L1161.355,263.53324127197305L1162.46,177.8270072937015L1163.5649999999998,348.54132843017624L1164.6699999999998,44.79699325561552L1165.775,174.0641040802005L1166.88,144.19159126281767L1167.9850000000001,172.76754570007358L1169.0900000000001,305.6077022552494L1170.195,139.01857566833525L1171.3,343.8844127655034L1172.405,167.68465232849155L1173.51,179.22690582275425L1174.615,72.64656257629423L1175.72,272.22643089294473L1176.825,175.18161964416535L1177.93,-8.625658035278093L1179.035,226.13732528686558L1180.14,220.76243591308628L1181.2450000000001,317.7796096801762L1182.3500000000001,209.43527412414585L1183.455,126.29091453552277L1184.56,270.0076217651371L1185.665,118.24600410461454L1186.77,295.045978546143L1187.875,111.94105339050321L1188.98,206.78387832641636L1190.085,197.13599395751987L1191.19,170.4526062011722L1192.295,317.4707908630375L1193.4,178.793718338013L1194.505,282.9635925292973L1195.61,291.6171283721928L1196.715,140.66841316223176L1197.82,194.8342723846439L1198.925,212.81726074218784" style="fill: none;" fill="none"></path></g></g></g></g></g></g><g transform="translate(50, 378)" clip-path="url(#clip_1)"><clipPath id="clip_1"><rect width="1326" height="22"></rect></clipPath><g><g><line x1="0" y1="0" x2="0" y2="5" style="visibility: inherit;" fill="rgb(0, 0, 0)" stroke="rgb(204, 204, 204)" stroke-width="1px"></line><line x1="110.5" y1="0" x2="110.5" y2="5" style="visibility: inherit;" fill="rgb(0, 0, 0)" stroke="rgb(204, 204, 204)" stroke-width="1px"></line><line x1="221" y1="0" x2="221" y2="5" style="visibility: inherit;" fill="rgb(0, 0, 0)" stroke="rgb(204, 204, 204)" stroke-width="1px"></line><line x1="331.5" y1="0" x2="331.5" y2="5" style="visibility: inherit;" fill="rgb(0, 0, 0)" stroke="rgb(204, 204, 204)" stroke-width="1px"></line><line x1="442" y1="0" x2="442" y2="5" style="visibility: inherit;" fill="rgb(0, 0, 0)" stroke="rgb(204, 204, 204)" stroke-width="1px"></line><line x1="552.5" y1="0" x2="552.5" y2="5" style="visibility: inherit;" fill="rgb(0, 0, 0)" stroke="rgb(204, 204, 204)" stroke-width="1px"></line><line x1="663" y1="0" x2="663" y2="5" style="visibility: inherit;" fill="rgb(0, 0, 0)" stroke="rgb(204, 204, 204)" stroke-width="1px"></line><line x1="773.5" y1="0" x2="773.5" y2="5" style="visibility: inherit;" fill="rgb(0, 0, 0)" stroke="rgb(204, 204, 204)" stroke-width="1px"></line><line x1="884" y1="0" x2="884" y2="5" style="visibility: inherit;" fill="rgb(0, 0, 0)" stroke="rgb(204, 204, 204)" stroke-width="1px"></line><line x1="994.5" y1="0" x2="994.5" y2="5" style="visibility: inherit;" fill="rgb(0, 0, 0)" stroke="rgb(204, 204, 204)" stroke-width="1px"></line><line x1="1105" y1="0" x2="1105" y2="5" style="visibility: inherit;" fill="rgb(0, 0, 0)" stroke="rgb(204, 204, 204)" stroke-width="1px"></line><line x1="1215.5" y1="0" x2="1215.5" y2="5" style="visibility: inherit;" fill="rgb(0, 0, 0)" stroke="rgb(204, 204, 204)" stroke-width="1px"></line><line x1="1326" y1="0" x2="1326" y2="5" style="visibility: inherit;" fill="rgb(0, 0, 0)" stroke="rgb(204, 204, 204)" stroke-width="1px"></line></g><g transform="translate(0, 8)"><text x="0" y="0" dx="0em" dy="0.95em" style="text-anchor: middle; visibility: hidden; font-family: &quot;Helvetica Neue&quot;, sans-serif; font-size: 12px; font-weight: 200;" fill="rgb(50, 49, 63)" stroke="none" stroke-width="1px">-100</text><text x="110.5" y="0" dx="0em" dy="0.95em" style="text-anchor: middle; visibility: inherit; font-family: &quot;Helvetica Neue&quot;, sans-serif; font-size: 12px; font-weight: 200;" fill="rgb(50, 49, 63)" stroke="none" stroke-width="1px">0</text><text x="221" y="0" dx="0em" dy="0.95em" style="text-anchor: middle; visibility: inherit; font-family: &quot;Helvetica Neue&quot;, sans-serif; font-size: 12px; font-weight: 200;" fill="rgb(50, 49, 63)" stroke="none" stroke-width="1px">100</text><text x="331.5" y="0" dx="0em" dy="0.95em" style="text-anchor: middle; visibility: inherit; font-family: &quot;Helvetica Neue&quot;, sans-serif; font-size: 12px; font-weight: 200;" fill="rgb(50, 49, 63)" stroke="none" stroke-width="1px">200</text><text x="442" y="0" dx="0em" dy="0.95em" style="text-anchor: middle; visibility: inherit; font-family: &quot;Helvetica Neue&quot;, sans-serif; font-size: 12px; font-weight: 200;" fill="rgb(50, 49, 63)" stroke="none" stroke-width="1px">300</text><text x="552.5" y="0" dx="0em" dy="0.95em" style="text-anchor: middle; visibility: inherit; font-family: &quot;Helvetica Neue&quot;, sans-serif; font-size: 12px; font-weight: 200;" fill="rgb(50, 49, 63)" stroke="none" stroke-width="1px">400</text><text x="663" y="0" dx="0em" dy="0.95em" style="text-anchor: middle; visibility: inherit; font-family: &quot;Helvetica Neue&quot;, sans-serif; font-size: 12px; font-weight: 200;" fill="rgb(50, 49, 63)" stroke="none" stroke-width="1px">500</text><text x="773.5" y="0" dx="0em" dy="0.95em" style="text-anchor: middle; visibility: inherit; font-family: &quot;Helvetica Neue&quot;, sans-serif; font-size: 12px; font-weight: 200;" fill="rgb(50, 49, 63)" stroke="none" stroke-width="1px">600</text><text x="884" y="0" dx="0em" dy="0.95em" style="text-anchor: middle; visibility: inherit; font-family: &quot;Helvetica Neue&quot;, sans-serif; font-size: 12px; font-weight: 200;" fill="rgb(50, 49, 63)" stroke="none" stroke-width="1px">700</text><text x="994.5" y="0" dx="0em" dy="0.95em" style="text-anchor: middle; visibility: inherit; font-family: &quot;Helvetica Neue&quot;, sans-serif; font-size: 12px; font-weight: 200;" fill="rgb(50, 49, 63)" stroke="none" stroke-width="1px">800</text><text x="1105" y="0" dx="0em" dy="0.95em" style="text-anchor: middle; visibility: inherit; font-family: &quot;Helvetica Neue&quot;, sans-serif; font-size: 12px; font-weight: 200;" fill="rgb(50, 49, 63)" stroke="none" stroke-width="1px">900</text><text x="1215.5" y="0" dx="0em" dy="0.95em" style="text-anchor: middle; visibility: inherit; font-family: &quot;Helvetica Neue&quot;, sans-serif; font-size: 12px; font-weight: 200;" fill="rgb(50, 49, 63)" stroke="none" stroke-width="1px">1k</text><text x="1326" y="0" dx="0em" dy="0.95em" style="text-anchor: middle; visibility: hidden; font-family: &quot;Helvetica Neue&quot;, sans-serif; font-size: 12px; font-weight: 200;" fill="rgb(50, 49, 63)" stroke="none" stroke-width="1px">1.1k</text></g><line x1="0" y1="0" x2="1326" y2="0" fill="rgb(0, 0, 0)" stroke="rgb(204, 204, 204)" stroke-width="1px"></line></g></g></g></g></svg>